# xmcd
#
# Track frame offsets: 
#        150
#        17492
#        42242
#        60326
#        73450
#        104521
#        117275
#        153109
#        166182
#        197613
#        227339
#        250884
#        284159
#        313289
#        333924
#
# Disc length: 4729 seconds
#
# Revision: 0
# Processed by: cddbd v1.4PL0 Copyright (c) Steve Scherf et al.
# Submitted via: ExactAudioCopy v0.90b4
#
DISCID=ce12770f
DTITLE=Eric Clapton - Best Ballads and Blueses
DYEAR=2002
DGENRE=Blues
TTITLE0=Mean Old World
TTITLE1=Ain't That Loving You
TTITLE2=The Sky Is Crying
TTITLE3=Cryin'
TTITLE4=Have You Ever Loved A Woman
TTITLE5=Alberta (previously unreleased)
TTITLE6=Early In The Morning
TTITLE7=Give Me Strength
TTITLE8=Meet Me [Down At The Bottom] (previously unreleased)
TTITLE9=Floating Bridge
TTITLE10=To Make Somebody Happy
TTITLE11=River Of Tears
TTITLE12=Running Of Faith
TTITLE13=Tears In Heaven
TTITLE14=Layla
EXTD=
EXTT0=
EXTT1=
EXTT2=
EXTT3=
EXTT4=
EXTT5=
EXTT6=
EXTT7=
EXTT8=
EXTT9=
EXTT10=
EXTT11=
EXTT12=
EXTT13=
EXTT14=
PLAYORDER=
